<svg width="188" height="40" viewBox="0 0 188 40" fill="none" xmlns="http://www.w3.org/2000/svg">
<path d="M0 0V40L35.4545 32V0H0Z" fill="#0B6CFF"/>
<path d="M10.7273 21.0909L8.5 25.9091H5.90909L15.1364 5.90909L24.3182 25.9091H21.7273L19.5455 21.0909H10.7273ZM15.0909 11.0909L11.7273 18.8636H18.5909L15.0909 11.0909Z" fill="white"/>
<path d="M20.4091 8.13636H21.0909C22.1364 8.13636 23.0909 8.22727 23.8182 8.59091H27.0455C25.9091 6.45455 23.1818 5.90909 20.3636 5.90909H16.1818L17.3636 8.59091H20.3636V8.13636H20.4091Z" fill="white"/>
<path d="M20.4091 12.0455V9.36363H17.7727L19 12.0455H20.4091Z" fill="white"/>
<path d="M25.2727 12.0455H27.5909C27.6364 11.8182 27.6364 11.5909 27.6364 11.4091C27.6364 10.6364 27.5454 9.95454 27.3182 9.36363H24.7273C25.0909 9.86363 25.2727 10.5 25.2727 11.4091C25.3636 11.6364 25.3182 11.8636 25.2727 12.0455Z" fill="white"/>
<path d="M26.4545 15.5C26.1818 15.3636 25.9091 15.3182 25.5909 15.2273V15.1818C26.5 14.7273 27.1818 13.8182 27.5 12.8182H25.2273C24.6818 14.4091 23.0455 14.7727 21.0909 14.7727H20.4545V12.8182H19.3636L20.5454 15.5H26.4545V15.5Z" fill="white"/>
<path d="M20.9091 16.3182H27.7273C28.5455 17 29.0909 17.9545 29.3636 19H26.8636C26.1818 17.1818 23.8636 16.7727 21.9545 16.7727H21.1364L20.9091 16.3182Z" fill="white"/>
<path d="M26.2727 22.4091H29.1364C29.4091 21.8182 29.5455 21.0909 29.5455 20.2727C29.5455 20.0909 29.5 19.9091 29.5 19.7273H27.0455C27.0909 19.8636 27.0909 20 27.0909 20.0909C27.0909 21.1818 26.7727 21.9091 26.2727 22.4091Z" fill="white"/>
<path d="M25 23.2273C24.7273 23.3182 24.4546 23.4091 24.1818 23.5L25.1364 25.5909C26.6364 25.2273 27.9546 24.4545 28.7273 23.2273H25V23.2273Z" fill="white"/>
<path d="M50.5 21.0909L48.1818 25.9091H45.4545L55.1364 5.90909L64.8182 25.9091H62.0909L59.7727 21.0909H50.5ZM55.1364 11.1364L51.5454 18.9091H58.7273L55.1364 11.1364Z" fill="#15181D"/>
<path d="M80.6818 9.95455C79.2273 8.72727 77.2273 8.09091 75.3182 8.09091C70.7727 8.09091 67.3182 11.6818 67.3182 15.9545C67.3182 20.1364 70.7727 23.7727 75.2727 23.7727C77.2727 23.7727 79.1818 23.0909 80.6818 21.8182V24.5455C79.1364 25.4091 77.1364 25.9091 75.3636 25.9091C69.5909 25.9091 64.8182 21.5455 64.8182 16C64.8182 10.3182 69.6364 5.90909 75.5909 5.90909C77.3636 5.90909 79.1818 6.36364 80.7273 7.22727L80.6818 9.95455Z" fill="#15181D"/>
<path d="M99.3636 9.95455C97.9091 8.72727 95.9091 8.09091 94 8.09091C89.4545 8.09091 86 11.6818 86 15.9545C86 20.1364 89.4545 23.7727 93.9545 23.7727C95.9545 23.7727 97.8636 23.0909 99.3636 21.8182V24.5455C97.8182 25.4091 95.8182 25.9091 94.0455 25.9091C88.2727 25.9091 83.5 21.5455 83.5 16C83.5 10.3182 88.3182 5.90909 94.2727 5.90909C96.0455 5.90909 97.8636 6.36364 99.4091 7.22727L99.3636 9.95455Z" fill="#15181D"/>
<path d="M102.818 5.90909H113.682V8.18182H105.318V13.7727H113.455V16.0455H105.318V23.6364H113.682V25.9091H102.818V5.90909Z" fill="#15181D"/>
<path d="M120.955 23.6364H127.136V25.9091H118.455V5.90909H120.955V23.6364Z" fill="#15181D"/>
<path d="M147.591 8.54545L146.045 5.90909H143.136L144.682 8.54545H147.591Z" fill="#15181D"/>
<path d="M157.318 8.54545L158.864 5.90909H156L154.409 8.54545H157.318Z" fill="#15181D"/>
<path d="M168.682 23.2273H166.182V25.9091H168.682V23.2273Z" fill="#15181D"/>
<path d="M161.364 5.90909V8.18182H166.182V8.54545H168.682V8.18182H173.545V5.90909H161.364Z" fill="#15181D"/>
<path d="M176.364 5.90909V8.54545H178.909V8.18182H187.273V5.90909H176.364Z" fill="#15181D"/>
<path d="M132.727 8.13636H133.409C134.455 8.13636 135.409 8.22727 136.136 8.59091H139.409C138.182 6.5 135.5 5.90909 132.636 5.90909H130.182V8.54545H132.682L132.727 8.13636Z" fill="#15181D"/>
<path d="M132.682 9.36363H130.182V12.0455H132.682V9.36363Z" fill="#15181D"/>
<path d="M137.682 12.0455H140.045C140.091 11.8182 140.091 11.5909 140.091 11.4091C140.091 10.6364 140 9.95454 139.773 9.40909H137.136C137.5 9.90909 137.682 10.5455 137.682 11.4545C137.727 11.6364 137.727 11.8636 137.682 12.0455Z" fill="#15181D"/>
<path d="M138.773 15.5C138.5 15.3636 138.182 15.3182 137.864 15.2273V15.1818C138.818 14.7273 139.455 13.8182 139.818 12.8182H137.455C136.909 14.4091 135.227 14.7727 133.318 14.7727H132.682V12.8182H130.182V15.4545H138.773V15.5Z" fill="#15181D"/>
<path d="M132.727 19V16.7727H134.273C136.182 16.7727 138.5 17.1818 139.227 19H141.773C141.5 17.9545 140.909 17 140.091 16.3182H130.182V19H132.727Z" fill="#15181D"/>
<path d="M134.682 23.6818H132.727V23.2273H130.227V25.9091H134.955C137.455 25.9091 139.955 25.1364 141.182 23.2273H137.409C136.591 23.5909 135.591 23.6818 134.682 23.6818Z" fill="#15181D"/>
<path d="M132.682 19.7727H130.182V22.4545H132.682V19.7727Z" fill="#15181D"/>
<path d="M138.591 22.4545H141.545C141.818 21.8636 141.955 21.1364 141.955 20.3182C141.955 20.1364 141.909 19.9545 141.909 19.7727H139.409C139.455 19.9091 139.455 20.0455 139.455 20.1364C139.455 21.1818 139.136 21.9091 138.591 22.4545Z" fill="#15181D"/>
<path d="M155.273 12.0455L156.864 9.36363H153.955L152.409 12.0455H155.273Z" fill="#15181D"/>
<path d="M149.591 12.0455L148.045 9.36363H145.182L146.727 12.0455H149.591Z" fill="#15181D"/>
<path d="M153.273 15.5L154.818 12.8182H151.955L151 14.4545L150.091 12.8182H147.182L148.773 15.5H153.273Z" fill="#15181D"/>
<path d="M149.727 19H152.273V17.2273L152.818 16.3182H149.227L149.727 17.2273V19V19Z" fill="#15181D"/>
<path d="M152.227 23.2273H149.727V25.9091H152.227V23.2273Z" fill="#15181D"/>
<path d="M152.227 19.7727H149.727V22.4545H152.227V19.7727Z" fill="#15181D"/>
<path d="M168.682 9.36363H166.182V12.0455H168.682V9.36363Z" fill="#15181D"/>
<path d="M168.682 12.8182H166.182V15.5H168.682V12.8182Z" fill="#15181D"/>
<path d="M168.682 16.3182H166.182V19H168.682V16.3182Z" fill="#15181D"/>
<path d="M168.682 19.7727H166.182V22.4545H168.682V19.7727Z" fill="#15181D"/>
<path d="M178.864 9.36363H176.364V12.0455H178.864V9.36363Z" fill="#15181D"/>
<path d="M178.864 16.3182H176.364V19H178.864V16.3182Z" fill="#15181D"/>
<path d="M178.909 23.6364V23.2273H176.364V25.9091H187.273V23.6364H178.909Z" fill="#15181D"/>
<path d="M178.864 19.7727H176.364V22.4545H178.864V19.7727Z" fill="#15181D"/>
<path d="M187.045 15.5V13.7727H178.909V12.8182H176.364V15.5H183.682H187.045V15.5Z" fill="#15181D"/>
</svg>
