<svg width="58" height="50" viewBox="0 0 58 50" fill="none" xmlns="http://www.w3.org/2000/svg">
<path d="M56.0625 15.9934C55.3528 13.9143 54.3771 11.8529 54.3948 9.61384C54.3948 7.35699 54.9803 5.08236 55.9738 3.05653C56.3464 2.29239 55.548 1.49272 54.7851 1.8659L54.7319 1.90144C52.7094 2.87882 50.4563 3.41194 48.2031 3.37639C45.879 3.34085 43.7323 2.50564 41.5501 1.77705C38.3035 0.675279 33.6907 0 28.5635 0C22.6024 0 17.3332 0.924066 14.0866 2.32794C7.98358 4.6381 3.21117 9.70269 1.25963 15.9934C0.479015 18.3036 0 21.2713 0 24.5055C0 27.7397 0.479015 30.6897 1.25963 33.0176C3.37085 39.877 8.85291 45.2615 15.772 47.2518C19.0187 48.3358 23.6491 49.011 28.7764 49.011C34.7375 49.011 40.0066 48.087 43.2533 46.6831C49.3563 44.3552 54.1287 39.3083 56.0802 33.0176C56.8786 30.7074 57.3399 27.7397 57.3399 24.5055C57.3221 21.2713 56.8609 18.3036 56.0625 15.9934Z" fill="#38B73E"/>
<path d="M36.7777 22.6218C36.7777 20.7026 38.3035 19.743 40.2195 19.743C42.1356 19.743 43.6258 20.7026 43.6258 22.6218V34.5458C43.6258 36.465 42.1356 37.4247 40.2195 37.4247C38.3035 37.4247 36.7777 36.465 36.7777 34.5458V22.6218Z" fill="white"/>
<path d="M36.8841 14.9272C36.8841 16.8464 38.4098 17.806 40.3259 17.806C42.242 17.806 43.7322 16.8464 43.7322 14.9272V14.4474C43.7322 12.5282 42.242 11.5686 40.3259 11.5686C38.4098 11.5686 36.8841 12.5282 36.8841 14.4474V14.9272Z" fill="white"/>
<path d="M13.5898 14.5363C13.5898 12.5815 15.1156 11.6219 17.0849 11.6574C18.9477 11.693 20.438 13.2213 20.438 15.0872V20.9514C20.438 21.3424 20.7573 21.6622 21.1476 21.6622H25.3878C25.7781 21.6622 26.0975 21.3424 26.0975 20.9514V15.0872C26.0975 13.2213 27.5877 11.693 29.4506 11.6574C31.4198 11.6219 32.9456 12.5815 32.9456 14.5363V34.066C32.9456 35.8964 31.4731 37.4069 29.6457 37.4424C27.6764 37.478 26.0975 36.5184 26.0975 34.5636V28.1307C26.0975 27.7397 25.7781 27.4199 25.3878 27.4199H21.1476C20.7573 27.4199 20.438 27.7397 20.438 28.1307V34.0127C20.438 35.8786 18.9477 37.4069 17.0849 37.4424C15.1156 37.478 13.5898 36.5184 13.5898 34.5636V14.5363Z" fill="white"/>
</svg>
